:SAMPLES-PER-SECOND 30
:FULLY-SPECIFIED
:DEGREES
255
root  -2.45397 40.9497 0.736303 178.968 -79.1649 -179.102
RightUpLeg  1.83301 -1.35152 -1.72689
RightLeg  -0.499902 -8.92384 0.300897
RightFoot  -0.218358 -0.427353 4.3935
RightToes  -3.13006e-008 1.75238e-005 3.56266e-009
Spine  -4.4637 3.84465 4.26725
Spine1  5.59762 5.20891 -6.61625
HEad  -6.18359 -9.56519 28.3553
LeftShoulder1  1.93905 -5.06954 -15.8544
LeftArm  -51.5559 -46.7889 -29.7489
LeftForeArm  48.8637 -74.9666 -39.4297
LeftHand  0.0760583 -2.17335 -1.0091
RightShoulder  2.27516 8.02654 12.7281
RightArm  -27.323 55.2313 43.9181
RightForeArm  28.6143 67.2974 24.8577
RightHand  -0.179088 7.02305 -2.05298
LeftUpLeg  2.91378 2.88687 3.00966
LeftLeg  1.20123 20.8989 -1.38971
LeftFoot  -1.87963 0.289777 -3.3907
LeftToes  4.76866e-008 1.46233e-008 1.30548e-009
256
root  -2.42202 40.9414 0.700354 178.155 -80.7164 -177.887
RightUpLeg  1.863 -1.35347 -1.53274
RightLeg  -1.11134 -10.5602 0.643096
RightFoot  -0.157212 -0.402691 4.10473
RightToes  -3.13006e-008 1.75238e-005 3.56266e-009
Spine  -4.3783 3.68773 4.18902
Spine1  5.60371 5.07807 -6.76524
HEad  -7.74698 -10.3014 28.5919
LeftShoulder1  1.97348 -4.85469 -16.9439
LeftArm  -55.4521 -44.8282 -30.9371
LeftForeArm  57.6287 -77.387 -50.3469
LeftHand  -0.0248851 -1.89691 0.556902
RightShoulder  2.19681 7.45141 13.0875
RightArm  -34.5737 52.1586 42.1893
RightForeArm  33.1697 70.5886 30.023
RightHand  -0.340085 5.87305 -3.82841
LeftUpLeg  2.44787 2.46 2.96481
LeftLeg  0.7245 20.0555 -1.11792
LeftFoot  -1.76933 0.273693 -3.14133
LeftToes  4.76866e-008 1.46233e-008 1.30548e-009
257
root  -2.40706 40.9498 0.659748 177.272 -81.9118 -176.951
RightUpLeg  2.22823 -1.28396 -1.36301
RightLeg  -1.68097 -11.8319 0.855851
RightFoot  -0.0868876 -0.383184 3.88005
RightToes  -3.13006e-008 1.75238e-005 3.56266e-009
Spine  -4.94927 3.51679 3.81696
Spine1  6.882 4.95896 -6.68769
HEad  -9.45631 -11.3826 29.0714
LeftShoulder1  2.01269 -4.50581 -18.562
LeftArm  -57.8547 -40.8634 -32.1583
LeftForeArm  76.2851 -79.5628 -71.4104
LeftHand  -0.0212008 -1.06965 0.523174
RightShoulder  2.29475 7.21868 14.5734
RightArm  -40.228 47.9585 40.0909
RightForeArm  44.174 74.2709 38.0046
RightHand  -0.447388 4.23987 -5.67694
LeftUpLeg  2.68797 2.02383 2.84443
LeftLeg  -0.325126 19.4738 -0.950441
LeftFoot  -1.24862 0.294923 -3.25314
LeftToes  4.76866e-008 1.46233e-008 1.30548e-009
258
root  -2.39216 40.9612 0.618246 176.862 -83.0211 -176.531
RightUpLeg  2.42518 -1.29342 -1.30671
RightLeg  -1.88588 -12.9275 0.992082
RightFoot  -0.097322 -0.381926 3.87067
RightToes  -3.13006e-008 1.75238e-005 3.56266e-009
Spine  -5.46641 3.30418 2.82439
Spine1  7.98698 4.67431 -5.92324
HEad  -11.0648 -11.8233 29.2729
LeftShoulder1  2.11481 -4.43946 -20.1987
LeftArm  -58.7907 -33.9758 -34.0703
LeftForeArm  106.113 -79.7689 -103.395
LeftHand  -0.0608198 0.339697 1.2267
RightShoulder  2.43911 6.95602 16.6857
RightArm  -43.9574 42.4217 38.0241
RightForeArm  62.9784 77.5953 49.461
RightHand  -0.36652 1.72649 -6.14649
LeftUpLeg  2.95462 1.78176 2.80643
LeftLeg  -1.23744 18.5943 -0.973008
LeftFoot  -0.81498 0.333649 -3.57007
LeftToes  4.76866e-008 1.46233e-008 1.30548e-009
259
root  -2.39807 40.9658 0.575643 176.644 -84.0492 -176.297
RightUpLeg  2.61954 -1.44567 -1.33481
RightLeg  -2.04452 -13.7856 1.19992
RightFoot  -0.140895 -0.359171 3.65044
RightToes  -3.13006e-008 1.75238e-005 3.56266e-009
Spine  -6.17278 2.96534 1.5373
Spine1  9.47439 4.27375 -5.00312
HEad  -12.3941 -11.9167 29.9779
LeftShoulder1  1.98413 -3.72039 -21.0698
LeftArm  -57.4014 -24.6303 -36.449
LeftForeArm  128.591 -77.5266 -127.067
LeftHand  -0.158192 -1.23308 2.99225
RightShoulder  2.53947 6.49168 18.9479
RightArm  -45.2722 35.5657 36.3299
RightForeArm  85.4788 79.9336 65.254
RightHand  -0.266314 -0.000155703 -5.75247
LeftUpLeg  3.08482 1.74028 2.85008
LeftLeg  -1.80056 17.6365 -1.10163
LeftFoot  -0.537593 0.345782 -3.62298
LeftToes  4.76866e-008 1.46233e-008 1.30548e-009
260
root  -2.39859 40.9603 0.560781 177.03 -84.516 -176.584
RightUpLeg  2.39217 -1.41524 -1.32503
RightLeg  -1.67789 -14.2971 1.07387
RightFoot  -0.361265 -0.353487 3.65655
RightToes  -3.13006e-008 1.75238e-005 3.56266e-009
Spine  -6.5963 2.69426 0.943019
Spine1  10.3175 4.08323 -4.97692
HEad  -13.4419 -11.3972 30.5166
LeftShoulder1  1.84535 -3.22403 -21.04
LeftArm  -54.2234 -13.9357 -39.0069
LeftForeArm  141.69 -74.31 -140.964
LeftHand  -0.074843 -0.804952 1.22127
RightShoulder  2.66156 6.25092 20.9691
RightArm  -44.1096 28.4914 35.0894
RightForeArm  106.731 80.9396 81.9734
RightHand  -0.0807817 -2.37204 -2.51746
LeftUpLeg  2.95704 1.60143 2.74636
LeftLeg  -1.92996 17.4497 -1.05335
LeftFoot  -0.421718 0.344848 -3.58128
LeftToes  4.76866e-008 1.46233e-008 1.30548e-009
261
root  -2.38887 40.9485 0.550103 177.21 -84.7834 -176.794
RightUpLeg  2.21026 -1.27549 -1.23808
RightLeg  -1.16831 -14.7169 0.781017
RightFoot  -0.624493 -0.364185 3.86964
RightToes  -3.13006e-008 1.75238e-005 3.56266e-009
Spine  -7.37511 2.53518 0.271668
Spine1  11.9298 3.93338 -4.48957
HEad  -14.5272 -11.7199 30.565
LeftShoulder1  1.75073 -2.81343 -21.336
LeftArm  -48.8144 -4.85458 -40.7241
LeftForeArm  148.202 -71.4787 -148.052
LeftHand  0.160999 0.468826 -3.75261
RightShoulder  2.65799 6.0442 21.568
RightArm  -40.6289 22.39 34.7279
RightForeArm  127.258 80.8994 101.578
RightHand  -0.0203979 -4.7046 4.22581
LeftUpLeg  2.7192 1.62277 2.74428
LeftLeg  -1.46493 17.1398 -0.947386
LeftFoot  -0.603911 0.31717 -3.3389
LeftToes  4.76866e-008 1.46233e-008 1.30548e-009
